<svg width="48" height="48" viewBox="0 0 48 48" fill="none" xmlns="http://www.w3.org/2000/svg">
<path d="M24 5.25C20.2916 5.25 16.6665 6.34967 13.5831 8.40994C10.4996 10.4702 8.09641 13.3986 6.67727 16.8247C5.25812 20.2508 4.88681 24.0208 5.61028 27.6579C6.33376 31.2951 8.11952 34.636 10.7418 37.2583C13.364 39.8805 16.7049 41.6662 20.3421 42.3897C23.9792 43.1132 27.7492 42.7419 31.1753 41.3227C34.6014 39.9036 37.5298 37.5004 39.5901 34.4169C41.6503 31.3335 42.75 27.7084 42.75 24C42.7445 19.0289 40.7674 14.2629 37.2522 10.7478C33.7371 7.23265 28.9711 5.25546 24 5.25ZM24 41.25C20.5883 41.25 17.2532 40.2383 14.4164 38.3428C11.5797 36.4474 9.3687 33.7533 8.06309 30.6013C6.75747 27.4493 6.41587 23.9809 7.08146 20.6347C7.74706 17.2885 9.38996 14.2149 11.8024 11.8024C14.2149 9.38995 17.2885 7.74705 20.6347 7.08145C23.9809 6.41586 27.4493 6.75747 30.6013 8.06308C33.7533 9.36869 36.4474 11.5797 38.3429 14.4164C40.2383 17.2532 41.25 20.5883 41.25 24C41.245 28.5735 39.426 32.9582 36.1921 36.1921C32.9582 39.426 28.5735 41.245 24 41.25ZM32.0306 20.4694C32.1004 20.539 32.1557 20.6217 32.1934 20.7128C32.2312 20.8038 32.2506 20.9014 32.2506 21C32.2506 21.0986 32.2312 21.1962 32.1934 21.2872C32.1557 21.3783 32.1004 21.461 32.0306 21.5306L24.5306 29.0306C24.461 29.1004 24.3783 29.1557 24.2872 29.1934C24.1962 29.2312 24.0986 29.2506 24 29.2506C23.9014 29.2506 23.8039 29.2312 23.7128 29.1934C23.6218 29.1557 23.539 29.1004 23.4694 29.0306L15.9694 21.5306C15.8997 21.4609 15.8444 21.3782 15.8067 21.2872C15.769 21.1961 15.7496 21.0985 15.7496 21C15.7496 20.9015 15.769 20.8039 15.8067 20.7128C15.8444 20.6218 15.8997 20.5391 15.9694 20.4694C16.0391 20.3997 16.1218 20.3444 16.2128 20.3067C16.3039 20.269 16.4015 20.2496 16.5 20.2496C16.5986 20.2496 16.6961 20.269 16.7872 20.3067C16.8782 20.3444 16.961 20.3997 17.0306 20.4694L24 27.4387L30.9694 20.4694C31.039 20.3996 31.1218 20.3443 31.2128 20.3066C31.3039 20.2688 31.4014 20.2494 31.5 20.2494C31.5986 20.2494 31.6962 20.2688 31.7872 20.3066C31.8783 20.3443 31.961 20.3996 32.0306 20.4694Z" fill="white"/>
</svg>
