<svg width="27" height="27" viewBox="0 0 27 27" fill="none" xmlns="http://www.w3.org/2000/svg">
<path d="M15.3809 2.05078V4.10156M15.3809 20.5078V22.5586M2.05078 15.3809H4.10156M2.05078 9.22852H4.10156M20.5078 15.3809H22.5586M20.5078 9.22852H22.5586M9.22852 2.05078V4.10156M9.22852 20.5078V22.5586M6.15234 4.10156H18.457C19.5896 4.10156 20.5078 5.01973 20.5078 6.15234V18.457C20.5078 19.5896 19.5896 20.5078 18.457 20.5078H6.15234C5.01973 20.5078 4.10156 19.5896 4.10156 18.457V6.15234C4.10156 5.01973 5.01973 4.10156 6.15234 4.10156ZM10.2539 9.22852H14.3555C14.9218 9.22852 15.3809 9.6876 15.3809 10.2539V14.3555C15.3809 14.9218 14.9218 15.3809 14.3555 15.3809H10.2539C9.6876 15.3809 9.22852 14.9218 9.22852 14.3555V10.2539C9.22852 9.6876 9.6876 9.22852 10.2539 9.22852Z" stroke="black" stroke-width="2" stroke-linecap="round" stroke-linejoin="round"/>
</svg>
