<svg width="27" height="27" viewBox="0 0 27 27" fill="none" xmlns="http://www.w3.org/2000/svg">
<path d="M20.25 12.2344C20.25 12.4847 20.1758 12.7294 20.0367 12.9375C19.8976 13.1456 19.7 13.3079 19.4687 13.4037C19.2374 13.4995 18.983 13.5245 18.7375 13.4757C18.492 13.4268 18.2664 13.3063 18.0894 13.1293C17.9124 12.9523 17.7919 12.7268 17.7431 12.4813C17.6942 12.2358 17.7193 11.9813 17.8151 11.75C17.9109 11.5188 18.0731 11.3211 18.2812 11.182C18.4894 11.043 18.7341 10.9688 18.9844 10.9688C19.32 10.9688 19.642 11.1021 19.8793 11.3394C20.1167 11.5768 20.25 11.8987 20.25 12.2344ZM16.0312 6.75H11.8125C11.5887 6.75 11.3741 6.8389 11.2159 6.99713C11.0576 7.15536 10.9688 7.36997 10.9688 7.59375C10.9688 7.81753 11.0576 8.03214 11.2159 8.19037C11.3741 8.34861 11.5887 8.4375 11.8125 8.4375H16.0312C16.255 8.4375 16.4696 8.34861 16.6279 8.19037C16.7861 8.03214 16.875 7.81753 16.875 7.59375C16.875 7.36997 16.7861 7.15536 16.6279 6.99713C16.4696 6.8389 16.255 6.75 16.0312 6.75ZM26.1562 11.8125V15.1875C26.1562 15.8588 25.8896 16.5027 25.4149 16.9774C24.9402 17.4521 24.2963 17.7188 23.625 17.7188H23.3761L21.6664 22.5049C21.5494 22.8328 21.3338 23.1164 21.0493 23.3169C20.7647 23.5174 20.4251 23.625 20.077 23.625H18.7355C18.3874 23.625 18.0478 23.5174 17.7632 23.3169C17.4787 23.1164 17.2631 22.8328 17.1461 22.5049L16.9436 21.9375H10.9002L10.6977 22.5049C10.5806 22.8328 10.3651 23.1164 10.0805 23.3169C9.79598 23.5174 9.45638 23.625 9.10828 23.625H7.76672C7.41861 23.625 7.07902 23.5174 6.79447 23.3169C6.50993 23.1164 6.29435 22.8328 6.1773 22.5049L4.85156 18.7966C3.59035 17.3692 2.80063 15.5872 2.59031 13.6941C2.31802 13.8371 2.08999 14.0518 1.93087 14.315C1.77175 14.5782 1.6876 14.8799 1.6875 15.1875C1.6875 15.4113 1.59861 15.6259 1.44037 15.7841C1.28214 15.9424 1.06753 16.0312 0.84375 16.0312C0.619974 16.0312 0.405362 15.9424 0.247129 15.7841C0.0888949 15.6259 0 15.4113 0 15.1875C0.00128923 14.435 0.253992 13.7046 0.717962 13.1122C1.18193 12.5198 1.83055 12.0995 2.56078 11.918C2.74927 9.59273 3.80534 7.42341 5.51927 5.84078C7.2332 4.25815 9.47963 3.37796 11.8125 3.375H22.7812C23.005 3.375 23.2196 3.4639 23.3779 3.62213C23.5361 3.78036 23.625 3.99497 23.625 4.21875C23.625 4.44253 23.5361 4.65714 23.3779 4.81537C23.2196 4.97361 23.005 5.0625 22.7812 5.0625H20.5253C21.9255 6.04494 23.0268 7.3955 23.7073 8.96484C23.7526 9.07031 23.7969 9.17578 23.8391 9.28125C24.4727 9.33503 25.0628 9.62527 25.4921 10.0943C25.9214 10.5633 26.1585 11.1767 26.1562 11.8125ZM24.4688 11.8125C24.4688 11.5887 24.3799 11.3741 24.2216 11.2159C24.0634 11.0576 23.8488 10.9688 23.625 10.9688H23.239C23.0593 10.9689 22.8842 10.9118 22.7393 10.8055C22.5943 10.6993 22.4871 10.5495 22.4332 10.3781C21.9498 8.83547 20.986 7.48767 19.6826 6.53141C18.3791 5.57515 16.8041 5.06048 15.1875 5.0625H11.8125C10.3388 5.06242 8.89692 5.49116 7.66269 6.29642C6.42846 7.10169 5.4552 8.24869 4.86161 9.59755C4.26802 10.9464 4.07973 12.4389 4.31972 13.8929C4.55971 15.3469 5.2176 16.6997 6.21316 17.7863C6.28929 17.869 6.3481 17.9662 6.38613 18.0721L7.76672 21.9375H9.10828L9.51117 20.81C9.56967 20.6462 9.67737 20.5045 9.81954 20.4042C9.96171 20.304 10.1314 20.2501 10.3054 20.25H17.5384C17.7124 20.2501 17.882 20.304 18.0242 20.4042C18.1664 20.5045 18.2741 20.6462 18.3326 20.81L18.7355 21.9375H20.077L21.9871 16.5913C22.0456 16.4275 22.1533 16.2857 22.2954 16.1855C22.4376 16.0852 22.6073 16.0313 22.7812 16.0312H23.625C23.8488 16.0312 24.0634 15.9424 24.2216 15.7841C24.3799 15.6259 24.4688 15.4113 24.4688 15.1875V11.8125Z" fill="black"/>
</svg>
