<svg width="24" height="25" viewBox="0 0 24 25" fill="none" xmlns="http://www.w3.org/2000/svg">
<path d="M18.879 14.2231L15.1864 12.3398C15.041 12.266 14.8791 12.2325 14.7171 12.2428C14.555 12.2532 14.3984 12.3069 14.2632 12.3987L12.5681 13.5522C11.7899 13.1158 11.1495 12.4627 10.7217 11.6689L11.8526 9.9399C11.9426 9.802 11.9953 9.64233 12.0054 9.477C12.0155 9.31168 11.9827 9.14655 11.9103 8.99829L10.064 5.23184C9.98744 5.0742 9.86915 4.94158 9.72251 4.84901C9.57587 4.75643 9.40673 4.70761 9.23427 4.70807C8.01008 4.70807 6.83603 5.20409 5.97039 6.08703C5.10476 6.96996 4.61845 8.16748 4.61845 9.41613C4.6215 12.1622 5.69236 14.7949 7.5961 16.7367C9.49983 18.6785 12.081 19.7708 14.7733 19.7739C15.3794 19.7739 15.9797 19.6521 16.5397 19.4155C17.0997 19.1789 17.6085 18.8321 18.0372 18.3949C18.4658 17.9577 18.8058 17.4387 19.0377 16.8675C19.2697 16.2963 19.3891 15.6841 19.3891 15.0658C19.3892 14.8909 19.3416 14.7194 19.2515 14.5705C19.1614 14.4217 19.0324 14.3013 18.879 14.2231ZM14.7733 17.8907C12.5705 17.8882 10.4586 16.9945 8.90098 15.4058C7.34336 13.817 6.46722 11.6629 6.46478 9.41613C6.4646 8.76303 6.6863 8.13004 7.09214 7.62488C7.49799 7.11972 8.0629 6.77361 8.69076 6.64544L10.0155 9.35257L8.88809 11.064C8.80384 11.1929 8.75207 11.341 8.73738 11.4952C8.72268 11.6494 8.74552 11.8049 8.80385 11.9479C9.46436 13.5491 10.7132 14.8229 12.283 15.4966C12.4237 15.5587 12.5773 15.5842 12.73 15.5706C12.8827 15.5571 13.0297 15.5049 13.1577 15.4189L14.8437 14.2725L17.4978 15.6237C17.3711 16.2649 17.0303 16.8413 16.5334 17.2547C16.0366 17.6681 15.4145 17.8929 14.7733 17.8907ZM12.0038 2.91518e-07C9.9318 -0.000460874 7.89501 0.546239 6.09165 1.58689C4.28829 2.62754 2.77979 4.12668 1.71298 5.9384C0.646178 7.75012 0.0574112 9.8127 0.00399032 11.9254C-0.0494306 14.038 0.434314 16.1288 1.40814 17.9942L0.0983979 22.002C-0.0100917 22.3338 -0.0258361 22.6899 0.0529295 23.0303C0.131695 23.3707 0.301858 23.6821 0.544346 23.9294C0.786834 24.1767 1.09206 24.3503 1.42583 24.4306C1.75959 24.511 2.10869 24.4949 2.43401 24.3843L6.36323 23.0483C7.97273 23.9215 9.75611 24.4092 11.578 24.4744C13.3999 24.5396 15.2124 24.1806 16.8779 23.4247C18.5435 22.6687 20.0183 21.5357 21.1904 20.1115C22.3626 18.6874 23.2012 17.0096 23.6427 15.2056C24.0842 13.4015 24.117 11.5185 23.7385 9.6996C23.36 7.88068 22.5803 6.17361 21.4584 4.70797C20.3365 3.24232 18.9021 2.05662 17.2639 1.24087C15.6257 0.425125 13.8268 0.000762978 12.0038 2.91518e-07ZM12.0038 22.5987C10.2186 22.6 8.4647 22.1204 6.91944 21.2087C6.8063 21.1417 6.68051 21.1001 6.5504 21.0865C6.4203 21.0729 6.28884 21.0877 6.16475 21.1298L1.84895 22.5987L3.28794 18.1967C3.32941 18.0702 3.34407 17.9361 3.33095 17.8034C3.31782 17.6707 3.27719 17.5424 3.21177 17.4269C2.0924 15.4529 1.64298 13.1574 1.93322 10.8963C2.22347 8.63523 3.23715 6.53505 4.81703 4.92157C6.3969 3.30808 8.45465 2.27149 10.6711 1.97259C12.8875 1.67369 15.1386 2.12919 17.0753 3.26844C19.012 4.40768 20.526 6.16699 21.3824 8.27343C22.2388 10.3799 22.3897 12.7157 21.8118 14.9186C21.2338 17.1214 19.9593 19.0682 18.1859 20.4568C16.4126 21.8454 14.2395 22.5983 12.0038 22.5987Z" fill="white"/>
</svg>
