<svg width="24" height="25" viewBox="0 0 24 25" fill="none" xmlns="http://www.w3.org/2000/svg">
<mask id="path-1-inside-1_216_110" fill="white">
<path d="M1.71798 10.8809C1.71798 10.6404 1.80827 10.4097 1.96899 10.2397C2.1297 10.0697 2.34768 9.97412 2.57496 9.97412H4.28892C4.51621 9.97412 4.73418 10.0697 4.8949 10.2397C5.05561 10.4097 5.1459 10.6404 5.1459 10.8809C5.1459 11.1213 5.05561 11.352 4.8949 11.522C4.73418 11.6921 4.51621 11.7876 4.28892 11.7876H2.57496C2.34768 11.7876 2.1297 11.6921 1.96899 11.522C1.80827 11.352 1.71798 11.1213 1.71798 10.8809ZM5.94182 5.75212C6.10263 5.92226 6.32072 6.01785 6.54814 6.01785C6.77555 6.01785 6.99364 5.92226 7.15445 5.75212C7.31525 5.58198 7.40559 5.35122 7.40559 5.1106C7.40559 4.86999 7.31525 4.63923 7.15445 4.46909L5.94182 3.18719C5.7798 3.02432 5.56406 2.93486 5.34059 2.93789C5.11712 2.94091 4.90361 3.03619 4.74558 3.20339C4.58755 3.37059 4.49751 3.5965 4.49465 3.83294C4.49179 4.06939 4.57634 4.29766 4.73027 4.46909L5.94182 5.75212ZM12.0017 3.62695C12.229 3.62695 12.447 3.53142 12.6077 3.36138C12.7684 3.19133 12.8587 2.9607 12.8587 2.72022V0.906738C12.8587 0.666256 12.7684 0.435624 12.6077 0.265577C12.447 0.095531 12.229 0 12.0017 0C11.7745 0 11.5565 0.095531 11.3958 0.265577C11.2351 0.435624 11.1448 0.666256 11.1448 0.906738V2.72022C11.1448 2.9607 11.2351 3.19133 11.3958 3.36138C11.5565 3.53142 11.7745 3.62695 12.0017 3.62695ZM17.4553 6.01734C17.5679 6.01744 17.6794 5.99406 17.7834 5.94855C17.8875 5.90305 17.982 5.8363 18.0617 5.75212L19.2732 4.46909C19.4271 4.29766 19.5117 4.06939 19.5088 3.83294C19.506 3.5965 19.4159 3.37059 19.2579 3.20339C19.0999 3.03619 18.8864 2.94091 18.6629 2.93789C18.4394 2.93486 18.2237 3.02432 18.0617 3.18719L16.849 4.46909C16.729 4.5959 16.6473 4.75753 16.6142 4.93351C16.5811 5.1095 16.598 5.29192 16.663 5.45769C16.7279 5.62347 16.8378 5.76513 16.9789 5.86476C17.1199 5.96438 17.2858 6.01748 17.4553 6.01734ZM18.8576 10.8809C18.8576 11.1213 18.9479 11.352 19.1086 11.522C19.2693 11.6921 19.4873 11.7876 19.7146 11.7876H21.4285C21.6558 11.7876 21.8738 11.6921 22.0345 11.522C22.1952 11.352 22.2855 11.1213 22.2855 10.8809C22.2855 10.6404 22.1952 10.4097 22.0345 10.2397C21.8738 10.0697 21.6558 9.97412 21.4285 9.97412H19.7146C19.4873 9.97412 19.2693 10.0697 19.1086 10.2397C18.9479 10.4097 18.8576 10.6404 18.8576 10.8809ZM7.71684 11.7876C7.94413 11.7876 8.1621 11.6921 8.32282 11.522C8.48353 11.352 8.57382 11.1213 8.57382 10.8809C8.57382 9.91893 8.93498 8.9964 9.57784 8.31622C10.2207 7.63603 11.0926 7.25391 12.0017 7.25391C12.9109 7.25391 13.7828 7.63603 14.4256 8.31622C15.0685 8.9964 15.4297 9.91893 15.4297 10.8809C15.4297 11.1213 15.5199 11.352 15.6807 11.522C15.8414 11.6921 16.0594 11.7876 16.2866 11.7876C16.5139 11.7876 16.7319 11.6921 16.8926 11.522C17.0533 11.352 17.1436 11.1213 17.1436 10.8809C17.1436 9.43797 16.6019 8.05417 15.6376 7.0339C14.6733 6.01362 13.3655 5.44043 12.0017 5.44043C10.638 5.44043 9.33017 6.01362 8.36588 7.0339C7.40159 8.05417 6.85986 9.43797 6.85986 10.8809C6.85986 11.1213 6.95015 11.352 7.11087 11.522C7.27158 11.6921 7.48956 11.7876 7.71684 11.7876ZM23.8827 24.0286C23.8076 24.1661 23.6998 24.2804 23.5699 24.3599C23.44 24.4395 23.2926 24.4816 23.1425 24.4819H0.861002C0.710858 24.4827 0.563164 24.4417 0.43271 24.363C0.302256 24.2844 0.193621 24.1708 0.117684 24.0338C0.0417464 23.8967 0.0011726 23.741 2.50374e-05 23.5821C-0.00112253 23.4233 0.0371965 23.2669 0.111145 23.1286L4.46996 14.968C4.545 14.8277 4.65404 14.7111 4.78584 14.6302C4.91765 14.5493 5.06745 14.5071 5.21982 14.5078H18.7826C18.935 14.5071 19.0848 14.5493 19.2166 14.6302C19.3484 14.7111 19.4574 14.8277 19.5325 14.968L23.8913 23.1286C23.964 23.2664 24.0015 23.422 24 23.5798C23.9985 23.7376 23.958 23.8923 23.8827 24.0286ZM18.2834 16.3213H15.6728L16.0456 18.1348H19.2518L18.2834 16.3213ZM14.292 18.1348L13.9192 16.3213H10.0842L9.71146 18.1348H14.292ZM9.33868 19.9482L8.78057 22.6685H15.2229L14.6648 19.9482H9.33868ZM4.75169 18.1348H7.95787L8.33065 16.3213H5.72008L4.75169 18.1348ZM2.32965 22.6685H7.0259L7.58508 19.9482H3.7833L2.32965 22.6685ZM21.6738 22.6685L20.2202 19.9482H16.4184L16.9776 22.6685H21.6738Z"/>
</mask>
<path d="M1.71798 10.8809C1.71798 10.6404 1.80827 10.4097 1.96899 10.2397C2.1297 10.0697 2.34768 9.97412 2.57496 9.97412H4.28892C4.51621 9.97412 4.73418 10.0697 4.8949 10.2397C5.05561 10.4097 5.1459 10.6404 5.1459 10.8809C5.1459 11.1213 5.05561 11.352 4.8949 11.522C4.73418 11.6921 4.51621 11.7876 4.28892 11.7876H2.57496C2.34768 11.7876 2.1297 11.6921 1.96899 11.522C1.80827 11.352 1.71798 11.1213 1.71798 10.8809ZM5.94182 5.75212C6.10263 5.92226 6.32072 6.01785 6.54814 6.01785C6.77555 6.01785 6.99364 5.92226 7.15445 5.75212C7.31525 5.58198 7.40559 5.35122 7.40559 5.1106C7.40559 4.86999 7.31525 4.63923 7.15445 4.46909L5.94182 3.18719C5.7798 3.02432 5.56406 2.93486 5.34059 2.93789C5.11712 2.94091 4.90361 3.03619 4.74558 3.20339C4.58755 3.37059 4.49751 3.5965 4.49465 3.83294C4.49179 4.06939 4.57634 4.29766 4.73027 4.46909L5.94182 5.75212ZM12.0017 3.62695C12.229 3.62695 12.447 3.53142 12.6077 3.36138C12.7684 3.19133 12.8587 2.9607 12.8587 2.72022V0.906738C12.8587 0.666256 12.7684 0.435624 12.6077 0.265577C12.447 0.095531 12.229 0 12.0017 0C11.7745 0 11.5565 0.095531 11.3958 0.265577C11.2351 0.435624 11.1448 0.666256 11.1448 0.906738V2.72022C11.1448 2.9607 11.2351 3.19133 11.3958 3.36138C11.5565 3.53142 11.7745 3.62695 12.0017 3.62695ZM17.4553 6.01734C17.5679 6.01744 17.6794 5.99406 17.7834 5.94855C17.8875 5.90305 17.982 5.8363 18.0617 5.75212L19.2732 4.46909C19.4271 4.29766 19.5117 4.06939 19.5088 3.83294C19.506 3.5965 19.4159 3.37059 19.2579 3.20339C19.0999 3.03619 18.8864 2.94091 18.6629 2.93789C18.4394 2.93486 18.2237 3.02432 18.0617 3.18719L16.849 4.46909C16.729 4.5959 16.6473 4.75753 16.6142 4.93351C16.5811 5.1095 16.598 5.29192 16.663 5.45769C16.7279 5.62347 16.8378 5.76513 16.9789 5.86476C17.1199 5.96438 17.2858 6.01748 17.4553 6.01734ZM18.8576 10.8809C18.8576 11.1213 18.9479 11.352 19.1086 11.522C19.2693 11.6921 19.4873 11.7876 19.7146 11.7876H21.4285C21.6558 11.7876 21.8738 11.6921 22.0345 11.522C22.1952 11.352 22.2855 11.1213 22.2855 10.8809C22.2855 10.6404 22.1952 10.4097 22.0345 10.2397C21.8738 10.0697 21.6558 9.97412 21.4285 9.97412H19.7146C19.4873 9.97412 19.2693 10.0697 19.1086 10.2397C18.9479 10.4097 18.8576 10.6404 18.8576 10.8809ZM7.71684 11.7876C7.94413 11.7876 8.1621 11.6921 8.32282 11.522C8.48353 11.352 8.57382 11.1213 8.57382 10.8809C8.57382 9.91893 8.93498 8.9964 9.57784 8.31622C10.2207 7.63603 11.0926 7.25391 12.0017 7.25391C12.9109 7.25391 13.7828 7.63603 14.4256 8.31622C15.0685 8.9964 15.4297 9.91893 15.4297 10.8809C15.4297 11.1213 15.5199 11.352 15.6807 11.522C15.8414 11.6921 16.0594 11.7876 16.2866 11.7876C16.5139 11.7876 16.7319 11.6921 16.8926 11.522C17.0533 11.352 17.1436 11.1213 17.1436 10.8809C17.1436 9.43797 16.6019 8.05417 15.6376 7.0339C14.6733 6.01362 13.3655 5.44043 12.0017 5.44043C10.638 5.44043 9.33017 6.01362 8.36588 7.0339C7.40159 8.05417 6.85986 9.43797 6.85986 10.8809C6.85986 11.1213 6.95015 11.352 7.11087 11.522C7.27158 11.6921 7.48956 11.7876 7.71684 11.7876ZM23.8827 24.0286C23.8076 24.1661 23.6998 24.2804 23.5699 24.3599C23.44 24.4395 23.2926 24.4816 23.1425 24.4819H0.861002C0.710858 24.4827 0.563164 24.4417 0.43271 24.363C0.302256 24.2844 0.193621 24.1708 0.117684 24.0338C0.0417464 23.8967 0.0011726 23.741 2.50374e-05 23.5821C-0.00112253 23.4233 0.0371965 23.2669 0.111145 23.1286L4.46996 14.968C4.545 14.8277 4.65404 14.7111 4.78584 14.6302C4.91765 14.5493 5.06745 14.5071 5.21982 14.5078H18.7826C18.935 14.5071 19.0848 14.5493 19.2166 14.6302C19.3484 14.7111 19.4574 14.8277 19.5325 14.968L23.8913 23.1286C23.964 23.2664 24.0015 23.422 24 23.5798C23.9985 23.7376 23.958 23.8923 23.8827 24.0286ZM18.2834 16.3213H15.6728L16.0456 18.1348H19.2518L18.2834 16.3213ZM14.292 18.1348L13.9192 16.3213H10.0842L9.71146 18.1348H14.292ZM9.33868 19.9482L8.78057 22.6685H15.2229L14.6648 19.9482H9.33868ZM4.75169 18.1348H7.95787L8.33065 16.3213H5.72008L4.75169 18.1348ZM2.32965 22.6685H7.0259L7.58508 19.9482H3.7833L2.32965 22.6685ZM21.6738 22.6685L20.2202 19.9482H16.4184L16.9776 22.6685H21.6738Z" fill="white" stroke="white" stroke-width="2" mask="url(#path-1-inside-1_216_110)"/>
</svg>
