<svg width="27" height="29" viewBox="0 0 27 29" fill="none" xmlns="http://www.w3.org/2000/svg">
<path d="M20.5078 14.3174C20.5078 19.8242 16.9189 22.5775 12.6533 24.1745C12.43 24.2558 12.1873 24.2519 11.9663 24.1635C7.69043 22.5775 4.10156 19.8242 4.10156 14.3174V6.60803C4.10156 6.31593 4.20959 6.0358 4.40189 5.82926C4.59419 5.62271 4.855 5.50668 5.12695 5.50668C7.17773 5.50668 9.74121 4.18507 11.5254 2.51102C11.7426 2.31168 12.019 2.20215 12.3047 2.20215C12.5904 2.20215 12.8668 2.31168 13.084 2.51102C14.8784 4.19608 17.4316 5.50668 19.4824 5.50668C19.7544 5.50668 20.0152 5.62271 20.2075 5.82926C20.3998 6.0358 20.5078 6.31593 20.5078 6.60803V14.3174Z" stroke="black" stroke-width="2" stroke-linecap="round" stroke-linejoin="round"/>
</svg>
