<svg width="20" height="23" viewBox="0 0 20 23" fill="none" xmlns="http://www.w3.org/2000/svg">
<path d="M10 3.28571C8.02219 3.28571 6.08879 3.86383 4.4443 4.94694C2.79981 6.03006 1.51809 7.56953 0.761209 9.37069C0.00433286 11.1718 -0.1937 13.1538 0.192152 15.0659C0.578004 16.978 1.53041 18.7344 2.92894 20.1129C4.32746 21.4915 6.10929 22.4303 8.0491 22.8106C9.98891 23.1909 11.9996 22.9957 13.8268 22.2497C15.6541 21.5036 17.2159 20.2402 18.3147 18.6192C19.4135 16.9982 20 15.0924 20 13.1429C19.997 10.5295 18.9424 8.02403 17.0677 6.17611C15.193 4.32818 12.6512 3.2887 10 3.28571ZM10 21.3571C8.35182 21.3571 6.74066 20.8754 5.37025 19.9728C3.99984 19.0702 2.93174 17.7873 2.30101 16.2863C1.67028 14.7854 1.50525 13.1337 1.82679 11.5403C2.14834 9.94691 2.94201 8.48327 4.10745 7.33448C5.27288 6.18569 6.75774 5.40336 8.37425 5.08641C9.99076 4.76946 11.6663 4.93213 13.189 5.55385C14.7117 6.17557 16.0132 7.22841 16.9289 8.57924C17.8446 9.93008 18.3333 11.5182 18.3333 13.1429C18.3309 15.3207 17.4521 17.4086 15.8898 18.9485C14.3276 20.4885 12.2094 21.3547 10 21.3571ZM14.7563 8.45455C14.8337 8.53084 14.8952 8.62144 14.9371 8.72116C14.9791 8.82088 15.0007 8.92776 15.0007 9.03571C15.0007 9.14366 14.9791 9.25055 14.9371 9.35027C14.8952 9.44999 14.8337 9.54059 14.7563 9.61687L10.5896 13.724C10.5122 13.8003 10.4202 13.8609 10.3191 13.9022C10.2179 13.9435 10.1095 13.9647 10 13.9647C9.89051 13.9647 9.78208 13.9435 9.68092 13.9022C9.57976 13.8609 9.48784 13.8003 9.41042 13.724C9.33299 13.6477 9.27158 13.5571 9.22967 13.4574C9.18777 13.3577 9.16621 13.2508 9.16621 13.1429C9.16621 13.0349 9.18777 12.928 9.22967 12.8283C9.27158 12.7286 9.33299 12.638 9.41042 12.5617L13.5771 8.45455C13.6545 8.37818 13.7464 8.31759 13.8476 8.27625C13.9487 8.23492 14.0572 8.21364 14.1667 8.21364C14.2762 8.21364 14.3846 8.23492 14.4858 8.27625C14.587 8.31759 14.6789 8.37818 14.7563 8.45455ZM6.66667 0.821428C6.66667 0.603572 6.75447 0.394639 6.91075 0.240591C7.06703 0.0865431 7.27899 0 7.5 0H12.5C12.721 0 12.933 0.0865431 13.0893 0.240591C13.2455 0.394639 13.3333 0.603572 13.3333 0.821428C13.3333 1.03928 13.2455 1.24822 13.0893 1.40227C12.933 1.55631 12.721 1.64286 12.5 1.64286H7.5C7.27899 1.64286 7.06703 1.55631 6.91075 1.40227C6.75447 1.24822 6.66667 1.03928 6.66667 0.821428Z" fill="black"/>
</svg>
